<svg xmlns="http://www.w3.org/2000/svg" fill="none" viewBox="0 0 15 15">
  <defs/>
  <path fill="#231F20" d="M.795 9.0729A6.838 6.838 0 01.6067 7.499c0-3.8084 3.0914-6.9067 6.892-6.9067s6.8912 3.0983 6.8912 6.9068c0 3.8084-3.0915 6.9067-6.8912 6.9067-2.5482 0-4.8794-1.4051-6.084-3.6678l-.039-.0737.0537-.0644c.5234-.6356 1.972-2.1144 4.1243-2.1144 1.0398 0 1.8547.3771 2.7192.7763.8184.378 1.6585.7661 2.6549.7661 1.3748 0 2.3225-1.122 2.3225-1.122l.1441-.1713-2.2843-3.3237-.887.895-.112.1118-.0903-.1297-2.9265-4.2203-3.443 4.6212.4912.3491 2.825-3.7906.1085-.1458.1042.15 2.8484 4.1042.8836-.8915.1119-.1136.0903.1306 1.4546 2.116.0625.0907-.0833.0738c-.2864.2525-.8784.6745-1.6187.6745-.8575 0-1.6004-.3423-2.385-.705-.8948-.4136-1.8122-.8373-2.989-.8373-2.1247 0-3.6114 1.2542-4.3083 2.0025l-.2265.2424-.3732.4025C1.8555 13.2525 4.5365 15 7.5005 15 11.635 15 15 11.6356 15 7.5S11.6351 0 7.5004 0C3.365 0 0 3.3644 0 7.5c0 .5695.072 1.155.2144 1.7432L.795 9.073z"/>
</svg>
