<svg xmlns="http://www.w3.org/2000/svg" fill="none" viewBox="0 0 1 1">
  <defs/>
  <path fill="#000" d="M.4994 1A.4983.4983 0 01.1457.854c-.1943-.1945-.1943-.5135 0-.708.1943-.1946.513-.1946.7073 0 .1458.1458.1866.3618.107.5524L.9268.6848c.0759-.175.037-.3755-.099-.5116-.1807-.181-.4741-.181-.6568 0-.1807.1809-.1807.4747 0 .6575.1807.181.4741.181.6568 0C.8453.8132.8588.7957.8744.7782H.204v-.037h.7365L.919.7724C.8997.8016.8783.8307.8531.854A.4983.4983 0 01.4993 1z"/>
  <path fill="#000" d="M.5333.8667a.1504.1504 0 01-.15-.15.1487.1487 0 01.1484-.1484A.1487.1487 0 01.68.7167c0 .0816-.065.15-.1467.15zm0-.2684A.1188.1188 0 00.415.7167c0 .065.0533.1183.1183.1183A.1174.1174 0 00.65.7167.1174.1174 0 00.5333.5983zM.205.7767a.0598.0598 0 01-.06-.06c0-.0334.0267-.06.06-.06.0333 0 .06.0266.06.06 0 .0333-.0267.06-.06.06zm0-.0884a.028.028 0 00-.0283.0284C.1767.7317.19.745.205.745A.028.028 0 00.2333.7167.0292.0292 0 00.205.6883z"/>
  <path fill="#000" d="M.38.7133L.3333.275h.0384A.015.015 0 00.3867.26a.015.015 0 00-.015-.015h-.095V.2133h.095c.025 0 .0466.0217.0466.0467a.0477.0477 0 01-.0466.0467H.3683L.41.7117.38.7133zM.1698.5753L.2013.572l.0104.0995-.0314.0033L.1698.5753z"/>
  <path fill="#000" d="M.6883.735V.7033C.7317.7033.74.6733.74.6483V.44H.3733L.2367.6833.21.6683l.145-.26h.4167V.65C.7717.7033.74.735.6883.735zM.1533.5583H.22V.59H.1533V.5583z"/>
</svg>
