<svg xmlns="http://www.w3.org/2000/svg" viewBox="0 0 19 19" fill="none">
  <defs/>
  <path fill="#231F20" d="M9.4994 19a9.444 9.444 0 006.721-2.7819 9.4428 9.4428 0 002.0627-3.0808 9.4363 9.4363 0 00.7168-3.6368 9.4305 9.4305 0 00-.7664-3.7555 9.4376 9.4376 0 00-2.1978-3.1412l-.508.5548c.0548.0516.1074.1042.1611.1578 3.4132 3.4098 3.4132 8.9596-.001 12.3693a8.6937 8.6937 0 01-6.1894 2.5641 8.7 8.7 0 01-3.3524-.6621 8.6936 8.6936 0 01-2.8381-1.902C-.101 12.276-.101 6.7262 3.31 3.3164a8.7106 8.7106 0 012.8421-1.9022 8.7152 8.7152 0 013.356-.6618 8.6997 8.6997 0 013.165.5935c.1536.0612.3984.16.5273.2211a3.345 3.345 0 01.1965.102l.1826.104-.1482.1493-7.707 7.78h5.2261l-.2749.2748-4.152 4.1524-.275.2758V11.426h-.7518v4.1041h3.9888v-.7513H6.939l.275-.2747 5.5514-5.553H7.5276l.2717-.2737L14.7104 1.7l-.3189-.263s-.3878-.3187-.8689-.5484a12.8342 12.8342 0 00-.5724-.2415A9.4463 9.4463 0 009.5059 0a9.4577 9.4577 0 00-3.6434.7185 9.4525 9.4525 0 00-3.0852 2.0656c-3.703 3.7038-3.703 9.7302 0 13.434a9.4517 9.4517 0 003.0825 2.0632A9.4568 9.4568 0 009.4994 19z"/>
</svg>
