<svg xmlns="http://www.w3.org/2000/svg" viewBox="0 0 6 6" fill="none">
  <defs/>
  <g fill="#231F20" clip-path="url(#clip0)">
    <path d="M4.0587 2.7438a.2105.2105 0 100 .4206.2103.2103 0 000-.4206zM4.0032 4.034l-.1485-.1488c-.1905.1737-.4509.2724-.7227.2724-.2715 0-.5322-.0987-.7224-.2724l-.149.1488c.236.2213.5476.3442.8711.3435a1.269 1.269 0 00.8715-.3435z"/>
    <path d="M5.197.9575c-.0003 0-.0417-.044-.076-.0783C4.5541.3122 3.8007 0 2.999 0 2.1976 0 1.444.3123.8772.8792c-1.1695 1.1697-1.1695 3.0732 0 4.244.566.5655 1.3197.8768 2.122.8768.8022 0 1.556-.3113 2.122-.8768a3.0033 3.0033 0 00.496-3.5903l-.2048.1197a2.7645 2.7645 0 01-.4591 3.3024 2.7452 2.7452 0 01-1.9545.808 2.745 2.745 0 01-1.954-.808c-1.077-1.0775-1.077-2.8308.0003-3.908A2.7452 2.7452 0 012.999.2373a2.751 2.751 0 011.9084.7643l.0383.0366-.0383.0366a2.7581 2.7581 0 01-1.914.7605 2.7379 2.7379 0 01-1.4825-.4306l-.1316.1984a2.9793 2.9793 0 001.6144.47c.7836 0 1.5224-.294 2.0799-.828l.2-.2052L5.197.9575z"/>
    <path d="M2.2803 3.1644a.2103.2103 0 100-.4206.2103.2103 0 000 .4206z"/>
  </g>
  <defs>
    <clipPath id="clip0">
      <path fill="#fff" d="M0 0h6v6H0z"/>
    </clipPath>
  </defs>
</svg>
