<svg xmlns="http://www.w3.org/2000/svg" fill="none" viewBox="0 0 25 25">
  <defs/>
  <g fill="#231F20" clip-path="url(#clip0)">
    <path d="M12.5 25a12.384 12.384 0 005.363-1.2061c.257-.1215.7217-.3884.7231-.3884l.2458-.144V5.2127L3.4421 13.7343l.4788.8657 13.6073-7.5358.315-.1737v15.799l-.1116.0607c-.1257.0664-.2175.1158-.2923.1511A11.4323 11.4323 0 0112.5 24.01C6.1525 24.01.9887 18.8467.9887 12.5.9887 6.1518 6.1525.9886 12.5.9886c6.3489 0 11.5113 5.1632 11.5113 11.5114a11.4814 11.4814 0 01-3.2486 8.0146 13.8064 13.8064 0 01-.2288.2344l.6864.7118c.0876-.0875.1596-.1596.2062-.209l.0594-.0636A12.4455 12.4455 0 0025 12.5C25 5.6081 19.3912 0 12.5 0 5.6073 0 0 5.6081 0 12.5 0 19.3918 5.6073 25 12.5 25z"/>
    <path d="M9.115 18.3626l2.7038-3.5888.7.5263-2.705 3.5887-.6988-.5262zm4.6088-6.1625l1.5662-2.0788.6988.5263-1.5663 2.08-.6987-.5275z"/>
  </g>
  <defs>
    <clipPath id="clip0">
      <path fill="#fff" d="M0 0h25v25H0z"/>
    </clipPath>
  </defs>
</svg>
