<svg xmlns="http://www.w3.org/2000/svg" width="60" height="60" fill="none" viewBox="0 0 1 1">
  <defs/>
  <path fill="#231F20" d="M.5 0a.5006.5006 0 00-.425.7637l.0219.0335.25-.2836L.2473.4127.233.3983h.2135L.5543.2745l.0149-.017v.1409h.164l-.024.0155-.14.0914v.2463L.5546.7363.4333.6097.405.6367.6083.849V.5265L.6121.524.865.3592H.6083V.1528l-.177.2035-.0025.0029H.1393l.1485.1502.0055.0057L.288.521.1097.7233l-.008.009L.096.7218A.4612.4612 0 01.0391.5a.4614.4614 0 01.461-.4608A.4613.4613 0 01.9607.5.4613.4613 0 01.5.9608.4605.4605 0 01.1934.8441L.1897.8407.163.8693l.0045.004A.4992.4992 0 00.5 1C.7757 1 1 .7756 1 .5 1 .2243.7758 0 .5 0z"/>
</svg>
