<svg viewBox="0 0 52 52" xmlns="http://www.w3.org/2000/svg"><g fill="#231F20" fill-rule="nonzero"><path d="M26 51.7c-6.6 0-13.2-2.5-18.2-7.5-10-10-10-26.4 0-36.4s26.4-10 36.4 0c7.5 7.5 9.6 18.6 5.5 28.4l-1.7-.7c3.9-9 1.9-19.3-5.1-26.3-9.3-9.3-24.4-9.3-33.8 0-9.3 9.3-9.3 24.4 0 33.8 9.3 9.3 24.4 9.3 33.8 0 .9-.9 1.6-1.8 2.4-2.7H10.8v-1.9h37.9L47.6 40c-1 1.5-2.1 3-3.4 4.2-5 5-11.6 7.5-18.2 7.5z"/><path d="M28 48c-5 0-9-4.1-9-9s4-8.9 8.9-8.9 8.9 4 8.9 8.9-3.9 9-8.8 9zm0-16.1c-3.9 0-7.1 3.2-7.1 7.1 0 3.9 3.2 7.1 7.1 7.1 3.9 0 7-3.2 7-7.1 0-3.9-3.1-7.1-7-7.1zM8.3 42.6c-2 0-3.6-1.6-3.6-3.6s1.6-3.6 3.6-3.6 3.6 1.6 3.6 3.6-1.6 3.6-3.6 3.6zm0-5.3c-1 0-1.7.8-1.7 1.7 0 .9.8 1.7 1.7 1.7 1 0 1.7-.8 1.7-1.7 0-.9-.8-1.7-1.7-1.7z"/><path d="M18.8 38.8L16 12.5h2.3c.5 0 .9-.4.9-.9s-.4-.9-.9-.9h-5.7V8.8h5.7c1.5 0 2.8 1.3 2.8 2.8 0 1.5-1.3 2.8-2.8 2.8h-.2l2.5 24.3-1.8.1zM6.19 30.52l1.889-.199.626 5.967-1.89.198z"/><path d="M37.3 40.1v-1.9c2.6 0 3.1-1.8 3.1-3.3V22.4h-22L10.2 37l-1.6-.9 8.7-15.6h25V35c0 3.2-1.9 5.1-5 5.1zM5.2 29.5h4v1.9h-4v-1.9z"/></g></svg>