<svg xmlns="http://www.w3.org/2000/svg" fill="none" viewBox="0 0 4 4">
  <defs/>
  <path fill="#231F20" d="M1.9999 4c.4552 0 .8968-.1552 1.2519-.44l-.101-.1218a1.844 1.844 0 01-1.151.4038C.9845 3.842.1583 3.0158.1583 2.0001.1582.9845.9844.1582 1.9999.1582c1.0157 0 1.8415.8263 1.8415 1.842-.0001.3172-.082.629-.2375.9055l-.0057.0097-.0097.0172h-.4881V1.356l-.74.6482v.9286h-.3377V.9036H1.048V2.283H.5203v.158h.6856V1.0616h.6583v2.0291h.6544v-1.015l.0116-.0101.3556-.3117.056-.0493v1.3861h.7359l.023-.0384s.0375-.0622.0556-.095c.16-.2937.2437-.6228.2436-.9573C4 .8972 3.1027 0 1.9999 0 .897 0 0 .8972 0 2.0001 0 3.103.8971 4 1.9999 4z"/>
</svg>
