<svg width="27" height="17" viewBox="0 0 27 17" fill="none" xmlns="http://www.w3.org/2000/svg">
<path d="M20.9368 6.57381L20.9489 6.61458L20.9911 6.60921C21.2021 6.58236 21.4172 6.56844 21.6355 6.56844C24.3966 6.56844 26.6417 8.78502 26.6417 11.5083C26.6417 14.2314 24.3966 16.4482 21.6355 16.4482C18.8743 16.4482 16.6292 14.2314 16.6292 11.5083C16.6292 9.53592 17.807 7.82964 19.5059 7.03839L19.545 7.02019L19.5327 6.97887L18.7005 4.16788L18.6702 4.06556L18.611 4.15431L13.4382 11.9048C13.3028 12.1075 13.0733 12.2296 12.827 12.2296H10.067H10.0243L10.0176 12.2718C9.64473 14.6338 7.56901 16.4482 5.07123 16.4482C2.31011 16.4482 0.0650146 14.2314 0.0650146 11.5083C0.0650146 8.78502 2.31011 6.56844 5.07123 6.56844C5.61059 6.56844 6.13033 6.65337 6.61739 6.80988L6.65779 6.82286L6.67717 6.78512L7.64677 4.89707L7.66 4.87131L7.64424 4.84701L6.8226 3.58041L6.80782 3.55762H6.78065H6.53622C6.13153 3.55762 5.80468 3.23411 5.80468 2.83633C5.80468 2.43855 6.13153 2.11504 6.53622 2.11504H8.53037C8.93506 2.11504 9.26192 2.43855 9.26192 2.83633C9.26192 3.20234 8.98498 3.50486 8.62539 3.55079L8.54648 3.56087L8.58979 3.62761L8.87472 4.06668L8.88951 4.08946H8.91667H16.8762H16.9029L16.9178 4.06722L17.9761 2.48145L18.028 2.4037H17.9345H15.7037C15.299 2.4037 14.9721 2.08019 14.9721 1.68241C14.9721 1.28463 15.299 0.961118 15.7037 0.961118H19.1185C19.5231 0.961118 19.85 1.28463 19.85 1.68241C19.85 1.86954 19.7771 2.03956 19.6581 2.16806L19.6388 2.18894L19.6469 2.21622L20.9368 6.57381ZM8.62218 6.35485L8.5752 6.28242L8.53576 6.35921L7.98135 7.43862L7.9616 7.47707L7.9968 7.50217C9.05793 8.25898 9.80772 9.41494 10.0176 10.7448L10.0243 10.787H10.067H11.4052H11.4972L11.4471 10.7098L8.62218 6.35485ZM7.33857 8.82325L7.29066 8.78377L7.26229 8.83899L6.2992 10.7142L6.26179 10.787H6.34368H8.47522H8.53819L8.52392 10.7257C8.34774 9.96867 7.92294 9.30482 7.33857 8.82325ZM5.9577 8.1857L5.98661 8.12939L5.92515 8.1143C5.65145 8.04708 5.36556 8.01102 5.07123 8.01102C3.11806 8.01102 1.5281 9.57918 1.5281 11.5083C1.5281 13.4375 3.11806 15.0056 5.07123 15.0056C6.75216 15.0056 8.16251 13.844 8.52392 12.2909L8.53819 12.2296H8.47522H5.07123C4.81661 12.2296 4.58078 12.0992 4.44774 11.8856C4.31476 11.672 4.30393 11.4059 4.41863 11.1825L5.9577 8.1857ZM12.7977 10.1145L12.8391 10.1782L12.8812 10.115L15.8881 5.6098L15.94 5.53204H15.8466H9.9172H9.82517L9.87526 5.60925L12.7977 10.1145ZM19.9789 8.4867L19.9612 8.42697L19.9067 8.45716C18.8254 9.05618 18.0923 10.1988 18.0923 11.5083C18.0923 13.4373 19.6823 15.0056 21.6355 15.0056C23.5886 15.0056 25.1786 13.4375 25.1786 11.5083C25.1786 9.57938 23.5886 8.01102 21.6355 8.01102C21.5657 8.01102 21.4967 8.01347 21.4282 8.01753L21.3653 8.02126L21.3832 8.08164L22.3377 11.3062C22.4508 11.688 22.2288 12.0887 21.8408 12.2006C21.7721 12.2204 21.7031 12.2298 21.6351 12.2298C21.318 12.2298 21.0264 12.0249 20.9332 11.7105L19.9789 8.4867Z" fill="black" stroke="white" stroke-width="0.1"/>
</svg>
