<svg width="34" height="34" viewBox="0 0 34 34" fill="none" xmlns="http://www.w3.org/2000/svg"><path clip-rule="evenodd" d="M4 0a4 4 0 00-4 4v26a4 4 0 004 4h26a4 4 0 004-4V4a4 4 0 00-4-4H4z"/><g clip-path="url(#clip0)"><path d="M20 8.003L17.924 8c-2.331 0-3.838 1.546-3.838 3.938v1.815H12a.326.326 0 00-.326.326v2.63c0 .181.146.327.326.327h2.086v6.638c0 .18.146.326.326.326h2.722c.18 0 .326-.146.326-.326v-6.638h2.44c.18 0 .326-.146.326-.326v-2.63a.326.326 0 00-.326-.327h-2.44v-1.539c0-.74.177-1.115 1.14-1.115H20c.18 0 .326-.147.326-.327V8.33A.326.326 0 0020 8.003z" fill="#fff"/></g><defs><clipPath id="clip0"><path fill="#fff" transform="translate(8 8)" d="M0 0h16v16H0z"/></clipPath></defs></svg>