<svg width="34" height="34" viewBox="0 0 34 34" fill="none" xmlns="http://www.w3.org/2000/svg"><path clip-rule="evenodd" d="M4 0a4 4 0 00-4 4v26a4 4 0 004 4h26a4 4 0 004-4V4a4 4 0 00-4-4H4z"/><path d="M20.584 8h-7.169A4.42 4.42 0 009 12.415v7.17A4.42 4.42 0 0013.415 24h7.17A4.42 4.42 0 0025 19.584v-7.169A4.42 4.42 0 0020.584 8zm2.996 11.584a3 3 0 01-2.995 2.996h-7.17a3 3 0 01-2.995-2.995v-7.17a3 3 0 012.995-2.995h7.17a3 3 0 012.995 2.995v7.17z" fill="#fff"/><path d="M17 11.877A4.127 4.127 0 0012.877 16 4.127 4.127 0 0017 20.123 4.127 4.127 0 0021.122 16 4.127 4.127 0 0017 11.877zm0 6.826A2.706 2.706 0 0114.296 16 2.706 2.706 0 0117 13.297 2.706 2.706 0 0119.703 16 2.706 2.706 0 0117 18.703zm4.296-8.029a1.045 1.045 0 00-1.041 1.04c0 .274.112.543.306.737.193.193.461.305.735.305.274 0 .542-.112.736-.305a1.045 1.045 0 000-1.473 1.046 1.046 0 00-.736-.304z" fill="#fff"/></svg>