<svg width="68" height="23" viewBox="0 0 68 23" fill="none" xmlns="http://www.w3.org/2000/svg"><path d="M68 5.99l-1.335 2.724c-1.524-.11-2.505-.758-2.505-.758l-1.006 1.938v7.664l-3.147.675V8.155l-1.457-.66 1.27-2.59 3.334 1.5v.806c0 .271-.015.54-.015.54.01.006.134-.295.243-.518l1.135-2.328S66.055 5.833 68 5.99zM25.67 7.672h-1.842l1.135-2.496h.706v-.955L28.825 2.5v2.677h2.034l-1.13 2.496h-.904v6.924c.673.535 1.95.91 1.95.896l-1.346 2.739s-2.382-.697-3.76-1.924V7.672zm14.023 12.976l-3.147 1.52V8.39l-1.082-.511-.783 1.486v8.171l-3.147.698V3.562c0-.903-.234-1.99-.234-1.99L34.28 0s.4 1.005.4 2.608V6.81c0 .329-.016.535-.016.535.013.004.133-.29.243-.516l.939-1.924 3.846 1.734v14.009zM7.783 7.757l2.929-2.21c1.755.392 3.693 2.695 3.693 5.423 0 2.715-.519 4.03-.519 4.03L9.69 18.132s-.872.1-1.971.1C1.809 18.233 0 13.926 0 10.6c0-2.124.618-3.166.618-3.166l3.07-2.23-.29-1.04L8.186.61c2.606 1.16 5.992 1.636 5.992 1.636l-3.289 2.447S8.67 4.32 6.795 3.4c-.16-.08-.318-.172-.318-.172-.01.007.05.182.1.358l1.206 4.172zm-3.799-1.52s-.06.19-.168.47a7.609 7.609 0 00-.438 2.534c0 4.636 2.69 6.714 6.077 6.714.795 0 1.127-.146 1.127-.146s.473-1.402.473-3.262c0-2.773-1.158-4.03-1.918-4.308l-1.011.72 1.011 3.655-2.82 2.076-2.214-8a4.53 4.53 0 01-.098-.451l-.02-.003zm53.927 9.28l-1.33 2.716s-3.516-.739-5.765-2.515V6.622l5.682-1.717 2.55 6.385-5.085 1.525v1.261c1.547 1.01 3.948 1.441 3.948 1.441zm-2.252-4.552L54.33 7.65c-.207-.514-.372-1-.372-1-.016.004.006.523.006 1.103v3.72l1.696-.508zM44.896 18.12s-2.128-.573-3.59-1.688V7.47l3.452-2.565 4.445 2.008v10.633l-3.089.687v-2.045c0-.17.013-.545.013-.545s-.153.333-.237.502l-.994 1.974zm1.222-2.75V8.632l-1.66-.752v6.79c.72.56 1.66.7 1.66.7zm-22.594-.045l-3.907 2.908s-2.42-.598-3.99-1.804V7.47l3.452-2.564 4.445 2.008v8.412zm-3.089.154V8.632l-1.66-.752v6.898s.602.484 1.66.701z" fill="#fff"/></svg>