<svg width="78" height="24" viewBox="0 0 78 24" fill="none" xmlns="http://www.w3.org/2000/svg"><g clip-path="url(#clip0)"><mask id="a" maskUnits="userSpaceOnUse" x="0" y="0" width="21" height="24"><path d="M.018.045h20.087v23.447H.018V.045z" fill="#fff"/></mask><g mask="url(#a)" fill-rule="evenodd" clip-rule="evenodd" fill="#fff"><path d="M7.543 2.901l.672.324c-.204.131-.399.253-.584.366a94.65 94.65 0 00-3.625 2.377l-.935.676c-.08.052-.17.113-.271.182-.547.377-1.416 1-2.609 1.871a29.63 29.63 0 01-.175-2.645A29.14 29.14 0 01.57.045c.76.263 1.506.54 2.236.83A51.96 51.96 0 015.38 1.916c.38.16.755.329 1.125.507.351.16.697.319 1.038.478z"/><path d="M8.215 3.225L7.543 2.9c-.341-.16-.687-.319-1.038-.478a24.29 24.29 0 00-1.126-.507A51.944 51.944 0 002.807.876 51.439 51.439 0 00.611.06a38.621 38.621 0 002.145 6.797l.044-.03c.1-.07.191-.131.27-.184l.936-.675A94.674 94.674 0 017.63 3.59c.184-.112.38-.234.584-.365zM19.528.381s1.31 5.619-.021 11.564c-1.246 5.561-5.026 11.472-8.116 11.548-3.286.082-6.109-3.228-7.971-6.113C1.518 14.433.775 11.114.775 11.114S4.3 7.918 9.084 5.076C12.494 3.017 19.528.381 19.528.381z"/></g><path fill-rule="evenodd" clip-rule="evenodd" d="M19.528.381S12.494 3.017 9.084 5.076a57.246 57.246 0 00-5.407 3.668c.336.73.894 1.866 1.664 3.165a76.433 76.433 0 013.105-1.623C11.56 8.722 16.603 7 20.102 5.886c-.038-3.21-.574-5.505-.574-5.505z" fill="#fff"/><path fill-rule="evenodd" clip-rule="evenodd" d="M10.22 4.436c.527 1.52 1.873 5.011 4.057 8.117 1.021 1.452 2.214 2.971 3.524 4.297a23.81 23.81 0 001.706-4.905C20.839 5.999 19.529.38 19.529.38s-5.682 2.13-9.308 4.055z" fill="#fff"/><path fill-rule="evenodd" clip-rule="evenodd" d="M19.538 11.801c.455-2.095.585-4.145.564-5.916-3.5 1.116-8.543 2.837-11.655 4.4a81.477 81.477 0 00-6.73 3.743c.386.966.9 2.066 1.563 3.13a83.604 83.604 0 018.244-3.31c2.171-.752 5.179-1.463 8.014-2.047z" fill="#fff"/><path fill-rule="evenodd" clip-rule="evenodd" d="M14.557 12.947a29.556 29.556 0 01-2.536-4.228c-1.318.521-2.55 1.053-3.574 1.567a75.427 75.427 0 00-3.105 1.623 31.203 31.203 0 002.298 3.372 77.602 77.602 0 013.884-1.433 41.88 41.88 0 013.034-.9z" fill="#fff"/><path fill-rule="evenodd" clip-rule="evenodd" d="M14.277 12.553c1.021 1.453 2.214 2.972 3.524 4.298a23.833 23.833 0 001.706-4.906c.48-2.145.617-4.248.595-6.06-2.349.75-5.392 1.77-8.082 2.834a29.564 29.564 0 002.257 3.834z" fill="#fff"/><path fill-rule="evenodd" clip-rule="evenodd" d="M5.413 20.07a76.598 76.598 0 013.16-1.083c2.486-.811 6.056-1.55 9.218-2.115a23.845 23.845 0 001.716-4.927l.031-.143c-2.835.583-5.843 1.294-8.014 2.046A83.756 83.756 0 003.28 17.16l.14.22a24.114 24.114 0 001.993 2.691z" fill="#fff"/><path fill-rule="evenodd" clip-rule="evenodd" d="M7.64 15.281c.305.388.626.773.962 1.152a40.666 40.666 0 001.893 1.993c2.228-.59 4.88-1.122 7.296-1.554a23.849 23.849 0 001.715-4.927l.032-.143c-2.836.583-5.843 1.294-8.014 2.046a77.42 77.42 0 00-3.884 1.433z" fill="#fff"/><mask id="b" maskUnits="userSpaceOnUse" x="10" y="5" width="68" height="17"><path d="M10.497 5.178H77.75v16.558H10.497V5.178z" fill="#fff"/></mask><g mask="url(#b)" fill-rule="evenodd" clip-rule="evenodd" fill="#fff"><path d="M17.79 16.872c-2.415.431-5.067.964-7.293 1.553 1.245 1.221 2.616 2.386 4.06 3.31 1.184-1.204 2.316-2.93 3.234-4.863zm6.352-11.694v10.866h.828v-4.79c0-.395.077-.762.232-1.106.156-.348.366-.648.633-.904a2.994 2.994 0 012.087-.832 2.739 2.739 0 011.91.764c.243.238.435.515.577.835.14.319.211.654.211 1.012v5.021h.829v-5.02a3.17 3.17 0 00-.282-1.322 3.462 3.462 0 00-1.874-1.809 3.593 3.593 0 00-1.371-.265 3.85 3.85 0 00-1.927.492 3.664 3.664 0 00-1.025.858v-3.8h-.828zm12.85 3.248a3.722 3.722 0 012.507.95c.327.298.59.647.793 1.05.175.347.271.722.314 1.12h-7.24a3.41 3.41 0 01.326-1.12 3.568 3.568 0 011.93-1.748 3.717 3.717 0 011.37-.252zm0-.798c-.613 0-1.197.113-1.744.34a4.529 4.529 0 00-1.429.923c-.405.39-.726.85-.959 1.375a4.086 4.086 0 00-.352 1.679c0 .59.117 1.152.352 1.68a4.414 4.414 0 002.387 2.31 4.536 4.536 0 001.745.34c.846 0 1.619-.206 2.303-.615a4.53 4.53 0 001.61-1.613l.085-.146-.726-.397-.087.148a3.66 3.66 0 01-.572.745 3.81 3.81 0 01-.74.577 3.465 3.465 0 01-.885.374 3.766 3.766 0 01-.988.129 3.62 3.62 0 01-1.369-.258 3.742 3.742 0 01-1.137-.706 3.568 3.568 0 01-.794-1.049 3.43 3.43 0 01-.325-1.12h8.11v-.4c0-.59-.118-1.151-.352-1.678a4.345 4.345 0 00-.96-1.375 4.54 4.54 0 00-1.428-.924 4.535 4.535 0 00-1.745-.339zm10.041.798A3.67 3.67 0 0149.62 9.46c.327.32.587.692.781 1.122a3.3 3.3 0 01.289 1.376c0 .485-.097.94-.29 1.37a3.615 3.615 0 01-.78 1.128c-.327.32-.71.57-1.156.757a3.656 3.656 0 01-1.43.278 3.727 3.727 0 01-2.595-1.035 3.55 3.55 0 01-.787-1.127 3.312 3.312 0 01-.289-1.37c0-.495.096-.951.289-1.377a3.54 3.54 0 01.787-1.12c.332-.32.718-.572 1.164-.759a3.67 3.67 0 011.43-.277zm0-.798a4.578 4.578 0 00-2.366.65 4.379 4.379 0 00-1.294 1.175l-.01-1.594h-.829v10.503h.828l.013-3.91a4.33 4.33 0 001.29 1.174 4.626 4.626 0 002.367.649c.614 0 1.197-.113 1.745-.34a4.607 4.607 0 001.434-.922c.411-.39.734-.85.968-1.375a4.087 4.087 0 00.352-1.68c0-.599-.117-1.165-.352-1.692a4.284 4.284 0 00-.968-1.376 4.623 4.623 0 00-3.179-1.262zm8.634 0a5.34 5.34 0 00-1.232.134 3.02 3.02 0 00-.987.412 2.044 2.044 0 00-.652.68 1.81 1.81 0 00-.233.922c0 .598.218 1.116.644 1.516.425.4.996.64 1.69.725l1.381.176c.276.034.53.1.763.197.234.098.434.218.603.36.165.139.293.3.386.487.092.185.138.384.138.605 0 .264-.06.487-.18.68-.123.2-.291.371-.511.517-.22.145-.487.258-.804.335a4.492 4.492 0 01-1.062.117c-.531 0-1.03-.06-1.498-.178a5.003 5.003 0 01-1.272-.504l-.141-.08-.465.657.159.092c.438.253.933.449 1.482.588.55.139 1.13.209 1.735.209.5 0 .96-.054 1.376-.163a3.475 3.475 0 001.076-.464c.302-.204.54-.457.708-.756.17-.302.254-.646.254-1.022 0-.346-.066-.666-.198-.956a2.265 2.265 0 00-.548-.746 2.798 2.798 0 00-.826-.507 4.122 4.122 0 00-1.045-.263l-1.378-.175c-.488-.07-.872-.24-1.173-.512-.3-.273-.438-.568-.438-.922 0-.439.18-.747.58-.989.405-.244.957-.374 1.668-.374.455 0 .905.055 1.351.164.45.11.836.249 1.159.413l.154.078.39-.703-.155-.079a6.022 6.022 0 00-1.342-.49 6.59 6.59 0 00-1.557-.18zm4.811-1.545v1.776h-.958v.797h.958v5.39c0 .274.054.535.162.777.107.24.256.454.446.636.19.183.414.327.668.43.257.103.53.155.815.155h.907v-.798h-.907a1.22 1.22 0 01-.898-.35 1.131 1.131 0 01-.364-.864V8.656h2.169V7.86h-2.17V6.083h-.828zm7.752 2.28a3.788 3.788 0 012.551.967c.334.303.602.658.808 1.068.178.353.276.736.32 1.141h-7.37a3.5 3.5 0 01.33-1.14v-.001a3.63 3.63 0 011.965-1.779c.437-.17.9-.256 1.395-.256zm0-.812a4.62 4.62 0 00-1.777.345 4.605 4.605 0 00-1.454.94 4.415 4.415 0 00-.976 1.4 4.158 4.158 0 00-.359 1.709c0 .601.12 1.173.359 1.71a4.488 4.488 0 002.43 2.353c.557.23 1.152.345 1.776.345.862 0 1.648-.21 2.346-.626a4.602 4.602 0 001.638-1.642l.087-.149-.74-.403-.088.15a3.73 3.73 0 01-1.336 1.346 3.537 3.537 0 01-.9.38 3.836 3.836 0 01-1.007.132 3.806 3.806 0 01-2.552-.981 3.63 3.63 0 01-.807-1.068 3.5 3.5 0 01-.332-1.14h8.257v-.407a4.18 4.18 0 00-.358-1.71 4.42 4.42 0 00-.977-1.4 4.614 4.614 0 00-1.454-.939 4.622 4.622 0 00-1.776-.345zm8.717.077c-.553 0-1.068.125-1.535.374a3.109 3.109 0 00-.811.647v-.79h-.829v8.185h.829v-5.36c0-.313.06-.603.183-.875.123-.276.29-.514.505-.72a2.37 2.37 0 011.658-.663c.15 0 .299.013.448.038l.161.027.193-.741-.16-.047a1.71 1.71 0 00-.322-.06h-.001a3.572 3.572 0 00-.319-.015z"/></g></g><defs><clipPath id="clip0"><path fill="#fff" d="M0 0h78v23.605H0z"/></clipPath></defs></svg>