<svg width="34" height="34" viewBox="0 0 34 34" fill="none" xmlns="http://www.w3.org/2000/svg"><path clip-rule="evenodd" d="M4 0a4 4 0 00-4 4v26a4 4 0 004 4h26a4 4 0 004-4V4a4 4 0 00-4-4H4z"/><path d="M24.25 10h-13.5a2.25 2.25 0 00-2.25 2.25v9a2.25 2.25 0 002.25 2.25h13.5a2.25 2.25 0 002.25-2.25v-9A2.25 2.25 0 0024.25 10zm-3.703 6.004l4.762-4.081c.033.105.066.21.066.327v9c0 .078-.03.147-.045.22l-4.783-5.466zm3.703-4.879c.075 0 .14.029.21.043l-6.96 5.966-6.96-5.966c.07-.014.135-.043.21-.043h13.5zM9.67 21.47c-.016-.074-.045-.142-.045-.22v-9c0-.117.034-.222.066-.327l4.761 4.08L9.67 21.47zm1.08.905c-.114 0-.217-.033-.32-.065l4.877-5.574 1.827 1.565a.556.556 0 00.732 0l1.827-1.565 4.878 5.574c-.104.032-.207.065-.321.065h-13.5z" fill="#fff"/></svg>