<svg width="14" height="18" viewBox="0 0 14 18" fill="none" xmlns="http://www.w3.org/2000/svg">
<path d="M12.744 3.00871C11.4229 1.09677 9.32924 0 7.0002 0C4.67116 0 2.57749 1.09677 1.25644 3.00871C-0.0581268 4.91099 -0.361665 7.31932 0.442858 9.44706C0.658048 10.0281 1.00012 10.5926 1.45713 11.1216L6.53957 17.0915C6.65452 17.2266 6.82293 17.3045 7.0002 17.3045C7.17747 17.3045 7.34589 17.2266 7.46083 17.0915L12.5419 11.1233C13.0009 10.5912 13.3425 10.0273 13.5559 9.45091C14.3621 7.31932 14.0585 4.91099 12.744 3.00871ZM12.4229 9.02715C12.2583 9.47186 11.9897 9.91154 11.6248 10.3345C11.6238 10.3355 11.6228 10.3365 11.622 10.3377L7.0002 15.7662L2.37558 10.3343C2.01094 9.91174 1.74228 9.4721 1.5761 9.02313C0.910754 7.26345 1.16326 5.27222 2.25175 3.69687C3.34365 2.11649 5.07451 1.2101 7.0002 1.2101C8.92587 1.2101 10.6565 2.11645 11.7485 3.69687C12.8371 5.27222 13.0899 7.26345 12.4229 9.02715Z" fill="black"/>
<path d="M6.99987 3.58994C5.13166 3.58994 3.61157 5.10982 3.61157 6.97823C3.61157 8.84664 5.13146 10.3665 6.99987 10.3665C8.86828 10.3665 10.3882 8.84664 10.3882 6.97823C10.3882 5.11002 8.86808 3.58994 6.99987 3.58994ZM6.99987 9.1564C5.79883 9.1564 4.82167 8.17924 4.82167 6.9782C4.82167 5.77716 5.79883 4.8 6.99987 4.8C8.20091 4.8 9.17807 5.77716 9.17807 6.9782C9.17807 8.17924 8.20091 9.1564 6.99987 9.1564Z" fill="black"/>
</svg>
