<svg width="24" height="20" viewBox="0 0 24 20" fill="none" xmlns="http://www.w3.org/2000/svg"><path fill-rule="evenodd" clip-rule="evenodd" d="M4.17.03a4.769 4.769 0 00-2.807 1.428A4.716 4.716 0 00.005 4.605c-.088 1.946 1.052 3.775 2.858 4.58.677.304 1.294.42 2.1.397a4.31 4.31 0 001.986-.497c.502-.25.805-.473 1.236-.904.428-.428.651-.731.904-1.234.68-1.35.69-2.892.026-4.256A4.826 4.826 0 005.62.057C5.292-.002 4.5-.015 4.171.03zM5.5.78c.526.09 1.14.34 1.6.651.311.21.835.732 1.045 1.035.306.446.542.994.657 1.523.08.37.085 1.186.013 1.547-.338 1.659-1.558 2.903-3.196 3.251-.279.062-.382.07-.824.07-.545 0-.795-.038-1.25-.187C1.774 8.096.593 6.336.745 4.494A4.085 4.085 0 014.41.735C4.668.708 5.21.73 5.5.78zM18.704.022c-1.714.165-3.293 1.346-3.947 2.949a4.798 4.798 0 001.026 5.205 4.788 4.788 0 006.319.447 4.693 4.693 0 001.422-1.752c.766-1.598.6-3.42-.444-4.895-.207-.29-.787-.866-1.098-1.087A6.437 6.437 0 0020.68.232a4.937 4.937 0 00-1.976-.21zm1.191.769a4.072 4.072 0 011.569.63c.361.239.872.75 1.111 1.114.941 1.422.922 3.192-.045 4.61-.181.265-.72.802-.997.994a4.322 4.322 0 01-1.518.656c-.332.07-.97.096-1.319.05a4.053 4.053 0 01-3.163-2.272c-1.191-2.446.314-5.333 3.02-5.796.321-.055.978-.047 1.342.014zm-1.566 11.117l-.814.505v.37c0 .202.01.37.022.37.01 0 .29-.168.616-.37.33-.205.604-.367.61-.362.023.027-.065.532-.158.904-.13.516-.247.832-.505 1.358a6.553 6.553 0 01-1.29 1.805 6.73 6.73 0 01-5.024 2 6.58 6.58 0 01-2.863-.723 6.374 6.374 0 01-1.667-1.197c-1.292-1.255-1.97-2.757-2.092-4.647l-.016-.258h-.72l.016.346A7.625 7.625 0 006.1 16.395c.234.293.893.952 1.18 1.178a7.668 7.668 0 003.642 1.58c.436.068 1.718.068 2.14 0 1.41-.227 2.59-.745 3.656-1.601.38-.306.98-.92 1.262-1.287a7.62 7.62 0 001.49-3.554c.023-.157.045-.29.05-.295.005-.006.279.157.609.364.33.205.606.372.614.372.01 0 .013-.17.01-.377l-.008-.378-.558-.345-.8-.5-.245-.15-.813.506z" fill="#fff"/></svg>