<svg width="18" height="18" viewBox="0 0 18 18" fill="none" xmlns="http://www.w3.org/2000/svg">
<path fill-rule="evenodd" clip-rule="evenodd" d="M2.25 17.9999C1.83525 17.9999 1.5 17.6647 1.5 17.2499V10.6492C1.5 10.2344 1.83525 9.89917 2.25 9.89917C2.66475 9.89917 3 10.2344 3 10.6492V17.2499C3 17.6647 2.66475 17.9999 2.25 17.9999Z" fill="#585858"/>
<mask id="mask0" mask-type="alpha" maskUnits="userSpaceOnUse" x="1" y="0" width="2" height="9">
<path fill-rule="evenodd" clip-rule="evenodd" d="M1.5 0H3V8.09985H1.5V0Z" fill="white"/>
</mask>
<g mask="url(#mask0)">
<path fill-rule="evenodd" clip-rule="evenodd" d="M2.25 8.09976C1.83525 8.09976 1.5 7.76451 1.5 7.34976V0.749756C1.5 0.335006 1.83525 -0.000244141 2.25 -0.000244141C2.66475 -0.000244141 3 0.335006 3 0.749756V7.34976C3 7.76451 2.66475 8.09976 2.25 8.09976Z" fill="#585858"/>
</g>
<path fill-rule="evenodd" clip-rule="evenodd" d="M15.75 18.0001C15.3352 18.0001 15 17.6648 15 17.2501V7.3501C15 6.93535 15.3352 6.6001 15.75 6.6001C16.1647 6.6001 16.5 6.93535 16.5 7.3501V17.2501C16.5 17.6648 16.1647 18.0001 15.75 18.0001Z" fill="#585858"/>
<path fill-rule="evenodd" clip-rule="evenodd" d="M15.75 4.5C15.3352 4.5 15 4.16475 15 3.75V0.75C15 0.33525 15.3352 0 15.75 0C16.1647 0 16.5 0.33525 16.5 0.75V3.75C16.5 4.16475 16.1647 4.5 15.75 4.5Z" fill="#585858"/>
<path fill-rule="evenodd" clip-rule="evenodd" d="M9 18C8.58525 18 8.25 17.6647 8.25 17.25V14.7C8.25 14.2852 8.58525 13.95 9 13.95C9.41475 13.95 9.75 14.2852 9.75 14.7V17.25C9.75 17.6647 9.41475 18 9 18Z" fill="#585858"/>
<path fill-rule="evenodd" clip-rule="evenodd" d="M9 11.3995C8.58525 11.3995 8.25 11.0642 8.25 10.6495V0.750244C8.25 0.335494 8.58525 0.000244141 9 0.000244141C9.41475 0.000244141 9.75 0.335494 9.75 0.750244V10.6495C9.75 11.0642 9.41475 11.3995 9 11.3995Z" fill="#585858"/>
<path fill-rule="evenodd" clip-rule="evenodd" d="M15.75 4.5C15.336 4.5 15 4.836 15 5.25C15 5.664 15.336 6 15.75 6C16.164 6 16.5 5.664 16.5 5.25C16.5 4.836 16.164 4.5 15.75 4.5ZM15.75 7.5C14.5095 7.5 13.5 6.4905 13.5 5.25C13.5 4.0095 14.5095 3 15.75 3C16.9905 3 18 4.0095 18 5.25C18 6.4905 16.9905 7.5 15.75 7.5Z" fill="#585858"/>
<path fill-rule="evenodd" clip-rule="evenodd" d="M9 12C8.586 12 8.25 12.336 8.25 12.75C8.25 13.164 8.586 13.5 9 13.5C9.414 13.5 9.75 13.164 9.75 12.75C9.75 12.336 9.414 12 9 12ZM9 15C7.7595 15 6.75 13.9905 6.75 12.75C6.75 11.5095 7.7595 10.5 9 10.5C10.2405 10.5 11.25 11.5095 11.25 12.75C11.25 13.9905 10.2405 15 9 15Z" fill="#585858"/>
<path fill-rule="evenodd" clip-rule="evenodd" d="M2.25 8.25C1.836 8.25 1.5 8.586 1.5 9C1.5 9.414 1.836 9.75 2.25 9.75C2.664 9.75 3 9.414 3 9C3 8.586 2.664 8.25 2.25 8.25ZM2.25 11.25C1.0095 11.25 0 10.2405 0 9C0 7.7595 1.0095 6.75 2.25 6.75C3.4905 6.75 4.5 7.7595 4.5 9C4.5 10.2405 3.4905 11.25 2.25 11.25Z" fill="#585858"/>
</svg>
