<svg width="18" height="17" viewBox="0 0 18 17" fill="none" xmlns="http://www.w3.org/2000/svg">
<path d="M17.4861 4.47009L13.5945 0.578473C13.3391 0.323126 12.9286 0.323126 12.6733 0.578473L8.78489 4.47009C8.52955 4.72544 8.52955 5.13594 8.78489 5.39128C9.04024 5.64663 9.45074 5.64663 9.70608 5.39128L12.4761 2.62125V14.0246C12.4761 14.3898 12.7703 14.684 13.1355 14.684C13.5007 14.684 13.7949 14.3898 13.7949 14.0246V2.62125L16.5649 5.39128C16.8203 5.64663 17.2308 5.64663 17.4861 5.39128C17.7414 5.13917 17.7414 4.72544 17.4861 4.47009Z" fill="#5FC693"/>
<path d="M8.89271 11.2224C8.63736 10.967 8.22687 10.967 7.97152 11.2224L5.20149 13.9924V2.58906C5.20149 2.22382 4.90735 1.92969 4.54211 1.92969C4.17687 1.92969 3.88273 2.22382 3.88273 2.58906V13.9924L1.1127 11.2224C0.857352 10.967 0.446858 10.967 0.19151 11.2224C-0.0638368 11.4777 -0.0638368 11.8882 0.19151 12.1436L4.08313 16.0352C4.33848 16.2905 4.74897 16.2905 5.00432 16.0352L8.89594 12.1436C9.14806 11.8882 9.14805 11.4745 8.89271 11.2224Z" fill="#5FC693"/>
</svg>
