<svg width="100%" height="100%" viewBox="1.508 1.352 17.884 17.798" xmlns="http://www.w3.org/2000/svg" fit=""
     preserveAspectRatio="xMidYMid meet" focusable="false">
  <path fill="#231F20"
        d="M10.445 1.405a8.793 8.793 0 00-6.091 2.43l.491.499a8.098 8.098 0 015.6-2.228c4.495 0 8.15 3.656 8.15 8.15s-3.655 8.15-8.15 8.15a8.092 8.092 0 01-5.763-2.389 8.089 8.089 0 01-2.387-5.762c0-1.294.293-2.531.873-3.677l.042-.083h2.769v7.262l.08.097c1.098 1.334 2.697 2.098 4.386 2.098a5.705 5.705 0 005.699-5.697c0-.638-.122-1.296-.364-1.956l-.084-.23H6.679V5.796H2.794l-.1.181a8.738 8.738 0 00-1.1 4.279 8.78 8.78 0 002.592 6.258 8.793 8.793 0 006.258 2.592c4.879 0 8.85-3.97 8.85-8.85.001-4.881-3.97-8.851-8.849-8.851zm.412 9.892V8.77H15.2l.033.107c.141.469.209.92.209 1.379 0 .349-.04.7-.123 1.073l-.025.118h-4.437v-.15zm0 3.75v-2.9h4.204l-.1.214a4.965 4.965 0 01-3.938 2.835l-.168.021v-.17zm-4.178-3.75V8.77h3.479v2.677H6.679v-.15zm0 2.152v-1.302h3.479v3.072l-.164-.015a4.97 4.97 0 01-3.277-1.655l-.038-.043v-.057z"></path>
</svg>
