<svg version="1.1" id="Layer_1" xmlns="http://www.w3.org/2000/svg" x="0" y="0" viewBox="0 0 38 38" xml:space="preserve"
     fit="" height="100%" width="100%" preserveAspectRatio="xMidYMid meet" focusable="false"><style>.st0 {
  fill: #231f20
}</style>
  <path class="st0"
        d="M19 36c-8 0-14.8-5.4-16.6-13.2l-.2-.9h7.5v1.2h-6c1.9 6.9 8 11.7 15.2 11.7 8.7 0 15.8-7.1 15.8-15.8S27.7 3.2 19 3.2 3.2 10.3 3.2 19v.2H2V19C2 9.6 9.6 2 19 2s17 7.6 17 17-7.6 17-17 17z"></path>
  <path class="st0"
        d="M19.4 27.1h-8.9c-1 0-1.7-.8-1.7-1.7v-1.3c0-.8.4-1.8 1-2.4l6-6 .8.8-6 6c-.3.3-.6 1-.6 1.5v1.3c0 .3.2.5.5.5h8.9c.5 0 1.2-.3 1.5-.6l7.8-7.8c.3-.3.6-1 .6-1.5v-1.3c0-.3-.2-.5-.5-.5h-7.4v-1.2h7.4c1 0 1.7.8 1.7 1.7V16c0 .8-.4 1.8-1 2.4l-7.8 7.8c-.5.5-1.5.9-2.3.9zm4.2 7.7h-1.2v-6.9c0-1.1.9-2 2-2h9.1v1.2h-9.1c-.5 0-.8.4-.8.8v6.9z"></path>
  <path class="st0"
        d="M19.2 34.8H18v-6.9c0-.5-.4-.8-.8-.8H4.5v-1.2h12.7c1.1 0 2 .9 2 2v6.9zm1-11.7h-8v-1.2h7.5l7.1-7.1.9.8zm4.4-1.2H33v1.2h-8.4z"></path>
  <path class="st0"
        d="M19 18.7l-.5-.9C15.2 12 15.2 12 15.1 12c-.3-.6-.5-1.3-.5-2 0-2.4 2-4.4 4.4-4.4 2.4 0 4.4 2 4.4 4.4 0 .7-.2 1.4-.5 2-.1.1-1.2 2.1-3.4 5.8l-.5.9zm0-12c-1.8 0-3.2 1.4-3.2 3.2 0 .5.1 1 .4 1.5.1.1 1.9 3.3 2.8 4.9.9-1.6 2.7-4.7 2.8-4.9.2-.5.4-.9.4-1.5 0-1.7-1.4-3.2-3.2-3.2z"></path>
  <circle class="st0" cx="19" cy="9.8" r="1"></circle></svg>
