<svg width="100%" height="100%" viewBox="1.565 1.729 17.769 17.749" xmlns="http://www.w3.org/2000/svg" fit=""
     preserveAspectRatio="xMidYMid meet" focusable="false">
  <path fill="#231F20"
        d="M10.444 1.747a8.838 8.838 0 00-6.738 3.127 8.787 8.787 0 00-2.111 5.723c0 4.025 2.837 7.613 6.766 8.588l.157-.682c-3.615-.904-6.223-4.205-6.223-7.907 0-1.487.415-2.951 1.199-4.234a8.11 8.11 0 016.95-3.915c4.495 0 8.151 3.656 8.151 8.15 0 4.294-3.327 7.868-7.574 8.135l-.159.01V11.27l.143-.008c2.128-.112 3.801-.685 4.973-1.701l.162-.141-.051-.209c-.659-2.615-2.97-4.441-5.619-4.441-3.203 0-5.808 2.653-5.808 5.914 0 .066.004.132.014.289l.014.339h1.564l.02.127a4.217 4.217 0 003.753 3.551l.135.014v4.447h.35c4.843 0 8.784-3.971 8.784-8.851-.001-4.883-3.972-8.853-8.852-8.853zm-.283 9.714v2.847l-.169-.021a3.527 3.527 0 01-3.015-2.796l-.036-.18h3.22v.15zm.107-.851H5.361l.006-.156C5.486 7.659 7.728 5.47 10.47 5.47c2.219 0 4.167 1.448 4.849 3.603l.032.101-.084.064c-1.196.91-2.878 1.372-4.999 1.372z"></path>
</svg>
