<svg width="100%" height="100%" viewBox="1.565 1.565 17.769 17.74" xmlns="http://www.w3.org/2000/svg" fit=""
     preserveAspectRatio="xMidYMid meet" focusable="false">
  <g fill="#231F20">
    <path
      d="M16.703 4.17a8.795 8.795 0 00-6.258-2.594h-.001a8.79 8.79 0 00-6.257 2.592 8.796 8.796 0 00-2.592 6.259c0 2.364.92 4.586 2.592 6.257l.249.247 2.201-2.212.098-.098.105.089a5.59 5.59 0 003.604 1.322h.35V4.831h-.35a5.607 5.607 0 00-5.6 5.602c0 1.309.464 2.583 1.307 3.589l.088.104-.097.098-1.592 1.6-.113.113-.106-.12a8.13 8.13 0 01-2.037-5.39c0-2.177.848-4.224 2.387-5.764a8.095 8.095 0 015.762-2.387c2.177 0 4.224.848 5.764 2.389a8.095 8.095 0 012.387 5.762 8.104 8.104 0 01-2.387 5.762 8.112 8.112 0 01-5.774 2.386 8.137 8.137 0 01-3.917-1.005l-.349.607a8.818 8.818 0 004.264 1.098c2.373 0 4.599-.92 6.27-2.591 1.672-1.671 2.592-3.894 2.592-6.257s-.918-4.586-2.59-6.257zM5.544 10.433a4.89 4.89 0 014.384-4.875l.166-.018v9.782l-.166-.018a4.884 4.884 0 01-4.384-4.871z"></path>
    <path
      d="M14.371 14.844a5.89 5.89 0 00.492-.498l-2.282-2.293c-.143.184-.31.347-.499.488l2.289 2.303zm-1.256-4.767a2.561 2.561 0 010 .7h3.191c.009-.116.015-.232.015-.35 0-.119-.006-.234-.015-.35h-3.191zm-.559-1.305l2.28-2.292a5.91 5.91 0 00-.492-.498L12.049 8.29c.191.139.361.3.507.482z"></path>
  </g>
</svg>
