<svg width="100%" height="100%" viewBox="1.565 1.188 17.769 17.769" xmlns="http://www.w3.org/2000/svg" fit=""
     preserveAspectRatio="xMidYMid meet" focusable="false">
  <path fill="#231F20"
        d="M10.446 1.234c-4.88 0-8.851 3.97-8.851 8.85s3.971 8.85 8.851 8.85a8.792 8.792 0 006.905-3.317l-.554-.429a8.097 8.097 0 01-6.351 3.047c-4.495 0-8.151-3.656-8.151-8.15s3.656-8.15 8.151-8.15c4.494 0 8.149 3.656 8.149 8.15 0 1.033-.19 2.039-.565 2.988l-.038.096h-2.489l.192-.243a2.444 2.444 0 00-.179-3.246l-4.729-4.73c-.44-.44-1.072-.693-1.734-.693-.661 0-1.292.253-1.732.693a2.43 2.43 0 00-.717 1.732v6.808l.001.003.001.029a2.455 2.455 0 002.449 2.469 2.45 2.45 0 002.405-2l.022-.123h6.968l.094-.209a8.78 8.78 0 00.752-3.574c-.001-4.881-3.971-8.851-8.85-8.851zm.279 12.806l-.001.006-.003.01-.011.036-.001.001a1.742 1.742 0 01-3.319-.036 1.719 1.719 0 01-.086-.516l.081-.008c0-.007-.003-.013-.003-.019l-.075-.013c.002-.176.036-.354.103-.541a1.75 1.75 0 011.644-1.172 1.75 1.75 0 011.633 1.141l.02.02.001.041a1.661 1.661 0 01.017 1.05zm3.058-.878h-2.304l-.025-.12a2.46 2.46 0 00-2.399-1.952c-.543 0-1.064.185-1.508.534l-.243.191V6.682c0-.469.182-.908.513-1.239a1.762 1.762 0 011.239-.497c.471 0 .921.182 1.237.498l4.729 4.729a1.751 1.751 0 01-1.239 2.989z"></path>
</svg>
