<svg width="100%" height="100%" viewBox="0 0 100 103" xmlns="http://www.w3.org/2000/svg"
     xmlns:xlink="http://www.w3.org/1999/xlink" fit="" preserveAspectRatio="xMidYMid meet" focusable="false">
  <defs>
    <path id="a" d="M63.733.196H0v63.732h63.733V.196z"></path>
    <path id="c" d="M63.903.37v63.733H.17V.37h63.733z"></path>
  </defs>
  <g fill="none" fill-rule="evenodd">
    <g transform="translate(0 .659)">
      <mask id="b" fill="#fff">
        <use xlink:href="#a"></use>
      </mask>
      <path
        d="M31.866 63.928c-1.429 0-2.866-.096-4.273-.284C11.863 61.534 0 47.956 0 32.06 0 14.491 14.295.196 31.866.196c17.572 0 31.867 14.295 31.867 31.865H59.83C59.829 16.644 47.285 4.1 31.866 4.1 16.448 4.1 3.904 16.644 3.904 32.061c0 13.948 10.407 25.862 24.208 27.713a28.28 28.28 0 003.754.25v3.904z"
        fill="#555555" mask="url(#b)"></path>
    </g>
    <path fill="#3EC694" d="M65.254 82.606l-11.913-11.91 2.76-2.762 9.152 9.15 16.951-16.953 2.761 2.76z"></path>
    <path
      d="M31.987 16.477c-5.385 0-7.294 1.76-7.294 6.728 0 4.253 2.996 8.993 7.294 8.993 4.299 0 7.294-4.74 7.294-8.993 0-4.967-1.908-6.728-7.294-6.728m0 19.624c-6.698 0-11.198-6.667-11.198-12.896 0-7.154 3.663-10.631 11.198-10.631s11.199 3.477 11.199 10.631c0 6.229-4.5 12.896-11.199 12.896"
      fill="#555555"></path>
    <path
      d="M21.803 48.922h-3.904c0-12.806 8.154-14.288 14.288-14.288 4.96 0 11.78.941 13.737 9.082l-3.796.912c-1.053-4.382-3.84-6.09-9.941-6.09-6.41 0-10.384 1.737-10.384 10.384"
      fill="#555555"></path>
    <g transform="translate(35.897 38.266)">
      <mask id="d" fill="#fff">
        <use xlink:href="#c"></use>
      </mask>
      <path
        d="M32.037 4.274c-15.419 0-27.962 12.544-27.962 27.962 0 15.419 12.543 27.963 27.962 27.963S60 47.655 60 32.236C60 16.818 47.456 4.274 32.037 4.274m0 59.829C14.465 64.103.17 49.808.17 32.236.17 14.665 14.465.37 32.037.37c17.572 0 31.867 14.295 31.867 31.866 0 17.572-14.295 31.867-31.867 31.867"
        fill="#3EC694" mask="url(#d)"></path>
    </g>
  </g>
</svg>
