<svg xmlns="http://www.w3.org/2000/svg" xmlns:xlink="http://www.w3.org/1999/xlink" version="1.1" x="0px" y="0px" viewBox="0 0 1000 1000" enable-background="new 0 0 1000 1000" xml:space="preserve">
<metadata> Svg Vector Icons : http://www.onlinewebfonts.com/icon </metadata>
  <g><path d="M500,991.1C230.3,991.1,10,770.3,10,500C10,229.7,230.3,8.9,500,8.9c270.9,0,490,220.8,490,491.1C990,770.3,769.7,991.1,500,991.1L500,991.1z M500,49.9C252.9,49.9,51,251.1,51,500C51,749,252.9,950.1,500,950.1c248.4,0,449-202.3,449-450.1C949,252.3,747.1,49.9,500,49.9L500,49.9z M779.9,729.2H234.6c-30.2,0-54.8-25.3-54.8-56.6V327.4c0-31.2,24.6-56.6,54.8-56.6h545.3c30.3,0,54.8,25.4,54.8,56.6v345.2C834.7,703.9,810.2,729.2,779.9,729.2L779.9,729.2z M765.4,688.7L594.9,532.4L567,557.7c-16.3,14.6-36.2,22.2-59.8,22.2c-23.5,0-43.5-7.5-59.7-22.2l-27.9-25.3L249.1,688.7H765.4L765.4,688.7z M220.6,348.1V660l169.8-158.1L220.6,348.1L220.6,348.1z M247.7,311.3l217.5,199.1c19,17.5,33,26.2,42.1,26.2c9.1,0,23.1-8.7,42.1-26.2l217.5-199.1H247.7L247.7,311.3z M793.9,348.1L624.1,501.9L793.9,660V348.1L793.9,348.1z"/></g>
</svg>
